{"title":"Captain America: The Winter Soldier 2014 R6 DVDScr x264 -SmY","uid":10107512,"size":2468786948,"categoryP":"video","categoryS":"movies","magnet":"?xt=urn:btih:12fd260fe6e2c2a0bcbb714988a6e5ce8cbec2d4&amp;dn=Captain+America%3A+The+Winter+Soldier+2014+R6+DVDScr+x264+-SmY&amp;tr=udp%3A%2F%2Ftracker.openbittorrent.com%3A80&amp;tr=udp%3A%2F%2Fopen.demonii.com%3A1337&amp;tr=udp%3A%2F%2Ftracker.coppersurfer.tk%3A6969&amp;tr=udp%3A%2F%2Fexodus.desync.com%3A6969","seeders":2,"leechers":2,"uploader":"TeXTX","files":-1,"time":1399476689,"description":" &lt;a href=&quot;http://www.imdb.com/title/tt1843866/&quot; rel=&quot;nofollow&quot; target=&quot;_NEW&quot;&gt;http://www.imdb.com/title/tt1843866/&lt;/a&gt;  \n[img]http://www.imgclik.com/images/63791188889624774595.jpg[/img]\n[img]http://www.imgclik.com/images/19363423429058828304.jpg[/img]\n[img]http://www.imgclik.com/images/30170306060987714840.jpg[/img]\nFormat : Matroska \n      Format version : Version 4 / Version 2 \n      File size : 2.30 GiB \n      Duration : 2h 15mn \n      Overall bit rate : 2 421 Kbps \n      Encoded date : UTC 2010-02-22 21:41:31 \n      Writing application : mkvmerge v5.9.0 ('On The Loose') built on Dec  9 2012 15:37:01 \n      Writing library : libebml v1.3.0 + libmatroska v1.4.0 \n   Video #1 \n      ID : 1 \n      Format : AVC \n      Format/Info : Advanced Video Codec \n      Format profile : &lt;a class=&quot;__cf_email__&quot; href=&quot;/cdn-cgi/l/email-protection&quot; data-cfemail=&quot;ffb7969897bfb3ccd1ce&quot;&gt;[email&amp;#160;protected]&lt;/a&gt;&lt;script cf-hash='f9e31' type=&quot;text/javascript&quot;&gt;\n/* &lt;![CDATA[ */!function(){try{var t=&quot;currentScript&quot;in document?document.currentScript:function(){for(var t=document.getElementsByTagName(&quot;script&quot;),e=t.length;e--;)if(t[e].getAttribute(&quot;cf-hash&quot;))return t[e]}();if(t&amp;&amp;t.previousSibling){var e,r,n,i,c=t.previousSibling,a=c.getAttribute(&quot;data-cfemail&quot;);if(a){for(e=&quot;&quot;,r=parseInt(a.substr(0,2),16),n=2;a.length-n;n+=2)i=parseInt(a.substr(n,2),16)^r,e+=String.fromCharCode(i);e=document.createTextNode(e),c.parentNode.replaceChild(e,c)}}}catch(u){}}();/* ]]&gt; */&lt;/script&gt; \n      Format settings, CABAC : Yes \n      Format settings, ReFrames : 4 frames \n      Muxing mode : Header stripping \n      Codec ID : V_MPEG4/ISO/AVC \n      Duration : 2h 15mn \n      Bit rate : 2 000 Kbps \n      Width : 720 pixels \n      Height : 404 pixels \n      Display aspect ratio : 16:9 \n      Frame rate : 23.976 fps \n      Color space : YUV \n      Chroma subsampling : 4:2:0 \n      Bit depth : 8 bits \n      Scan type : Progressive \n      Bits/(Pixel*Frame) : 0.287 \n      Stream size : 1.86 GiB (81%) \n      Writing library : x264 core 116 r2074 2641b9e \n       \n      Default : Yes \n      Forced : No \n   Audio #2 \n      ID : 2 \n      Format : AC-3 \n      Format/Info : Audio Coding 3 \n      Mode extension : CM (complete main) \n      Format settings, Endianness : Big \n      Muxing mode : Header stripping \n      Codec ID : A_AC3 \n      Duration : 2h 15mn \n      Bit rate mode : Constant \n      Bit rate : 224 Kbps \n      Channel(s) : 2 channels \n      Channel positions : Front: L R \n      Sampling rate : 44.1 KHz \n      Bit depth : 16 bits \n      Compression mode : Lossy \n      Stream size : 218 MiB (9%) \n      Default : No \n      Forced : No \n   Audio #3 \n      ID : 3 \n      Format : AC-3 \n      Format/Info : Audio Coding 3 \n      Mode extension : CM (complete main) \n      Format settings, Endianness : Big \n      Muxing mode : Header stripping \n      Codec ID : A_AC3 \n      Duration : 2h 15mn \n      Bit rate mode : Constant \n      Bit rate : 192 Kbps \n      Channel(s) : 2 channels \n      Channel positions : Front: L R \n      Sampling rate : 48.0 KHz \n      Bit depth : 16 bits \n      Compression mode : Lossy \n      Stream size : 187 MiB (8%) \n      Default : Yes \n      Forced : No","torrent":{"xt":"urn:btih:12fd260fe6e2c2a0bcbb714988a6e5ce8cbec2d4","amp;dn":"Captain+America%3A+The+Winter+Soldier+2014+R6+DVDScr+x264+-SmY","amp;tr":["udp%3A%2F%2Ftracker.openbittorrent.com%3A80","udp%3A%2F%2Fopen.demonii.com%3A1337","udp%3A%2F%2Ftracker.coppersurfer.tk%3A6969","udp%3A%2F%2Fexodus.desync.com%3A6969"],"infoHash":"12fd260fe6e2c2a0bcbb714988a6e5ce8cbec2d4","infoHashBuffer":{"type":"Buffer","data":[18,253,38,15,230,226,194,160,188,187,113,73,136,166,229,206,140,190,194,212]},"announce":[],"urlList":[]}}